<mxfile host="app.diagrams.net" modified="2024-04-05T01:40:51.689Z" agent="Mozilla/5.0 (Macintosh; Intel Mac OS X 10_15_7) AppleWebKit/605.1.15 (KHTML, like Gecko) Version/16.5.2 Safari/605.1.15" etag="YLIn-vtmzrsA0kEP6Mmi" version="24.2.1" type="github">
  <diagram id="prtHgNgQTEPvFCAcTncT" name="Page-1">
    <mxGraphModel dx="1352" dy="1805" grid="1" gridSize="10" guides="1" tooltips="1" connect="1" arrows="1" fold="1" page="1" pageScale="1" pageWidth="827" pageHeight="1169" math="0" shadow="0">
      <root>
        <mxCell id="0" />
        <mxCell id="1" parent="0" />
        <mxCell id="dNxyNK7c78bLwvsdeMH5-11" value="Orgchart" style="swimlane;html=1;startSize=20;horizontal=1;containerType=tree;glass=0;" parent="1" vertex="1">
          <mxGeometry x="4" y="-40" width="820" height="1170" as="geometry">
            <mxRectangle width="90" height="30" as="alternateBounds" />
          </mxGeometry>
        </mxCell>
        <mxCell id="9DXy_nRxr1cRBCCIfclB-47" style="edgeStyle=orthogonalEdgeStyle;rounded=0;orthogonalLoop=1;jettySize=auto;html=1;" edge="1" parent="dNxyNK7c78bLwvsdeMH5-11" source="9DXy_nRxr1cRBCCIfclB-3" target="9DXy_nRxr1cRBCCIfclB-22">
          <mxGeometry relative="1" as="geometry" />
        </mxCell>
        <mxCell id="9DXy_nRxr1cRBCCIfclB-3" value="" style="verticalLabelPosition=bottom;verticalAlign=top;html=1;shape=mxgraph.basic.rect;fillColor2=none;strokeWidth=1;size=20;indent=5;" vertex="1" parent="dNxyNK7c78bLwvsdeMH5-11">
          <mxGeometry x="327" y="30" width="166" height="60" as="geometry" />
        </mxCell>
        <mxCell id="9DXy_nRxr1cRBCCIfclB-73" style="edgeStyle=orthogonalEdgeStyle;rounded=0;orthogonalLoop=1;jettySize=auto;html=1;entryX=0.25;entryY=0;entryDx=0;entryDy=0;" edge="1" parent="dNxyNK7c78bLwvsdeMH5-11" source="9DXy_nRxr1cRBCCIfclB-10" target="9DXy_nRxr1cRBCCIfclB-25">
          <mxGeometry relative="1" as="geometry" />
        </mxCell>
        <mxCell id="9DXy_nRxr1cRBCCIfclB-10" value="" style="verticalLabelPosition=bottom;verticalAlign=top;html=1;shape=mxgraph.basic.rect;fillColor2=none;strokeWidth=1;size=20;indent=5;" vertex="1" parent="dNxyNK7c78bLwvsdeMH5-11">
          <mxGeometry x="70" y="160" width="160" height="70" as="geometry" />
        </mxCell>
        <mxCell id="9DXy_nRxr1cRBCCIfclB-9" value="" style="verticalLabelPosition=bottom;verticalAlign=top;html=1;shape=mxgraph.basic.rect;fillColor2=none;strokeWidth=1;size=20;indent=5;" vertex="1" parent="dNxyNK7c78bLwvsdeMH5-11">
          <mxGeometry x="330" y="160" width="163" height="70" as="geometry" />
        </mxCell>
        <mxCell id="9DXy_nRxr1cRBCCIfclB-74" style="edgeStyle=orthogonalEdgeStyle;rounded=0;orthogonalLoop=1;jettySize=auto;html=1;entryX=0.5;entryY=0;entryDx=0;entryDy=0;" edge="1" parent="dNxyNK7c78bLwvsdeMH5-11" source="9DXy_nRxr1cRBCCIfclB-8" target="9DXy_nRxr1cRBCCIfclB-43">
          <mxGeometry relative="1" as="geometry" />
        </mxCell>
        <mxCell id="9DXy_nRxr1cRBCCIfclB-75" style="edgeStyle=orthogonalEdgeStyle;rounded=0;orthogonalLoop=1;jettySize=auto;html=1;entryX=0.5;entryY=0;entryDx=0;entryDy=0;" edge="1" parent="dNxyNK7c78bLwvsdeMH5-11" source="9DXy_nRxr1cRBCCIfclB-8" target="9DXy_nRxr1cRBCCIfclB-44">
          <mxGeometry relative="1" as="geometry" />
        </mxCell>
        <mxCell id="9DXy_nRxr1cRBCCIfclB-8" value="" style="verticalLabelPosition=bottom;verticalAlign=top;html=1;shape=mxgraph.basic.rect;fillColor2=none;strokeWidth=1;size=20;indent=5;" vertex="1" parent="dNxyNK7c78bLwvsdeMH5-11">
          <mxGeometry x="590" y="160" width="166" height="70" as="geometry" />
        </mxCell>
        <mxCell id="9DXy_nRxr1cRBCCIfclB-13" value="" style="verticalLabelPosition=bottom;verticalAlign=top;html=1;shape=mxgraph.basic.rect;fillColor2=none;strokeWidth=1;size=20;indent=5;" vertex="1" parent="dNxyNK7c78bLwvsdeMH5-11">
          <mxGeometry x="160" y="280" width="110" height="160" as="geometry" />
        </mxCell>
        <mxCell id="9DXy_nRxr1cRBCCIfclB-14" value="" style="verticalLabelPosition=bottom;verticalAlign=top;html=1;shape=mxgraph.basic.rect;fillColor2=none;strokeWidth=1;size=20;indent=5;" vertex="1" parent="dNxyNK7c78bLwvsdeMH5-11">
          <mxGeometry x="20" y="280" width="90" height="160" as="geometry" />
        </mxCell>
        <mxCell id="9DXy_nRxr1cRBCCIfclB-18" value="" style="verticalLabelPosition=bottom;verticalAlign=top;html=1;shape=mxgraph.basic.rect;fillColor2=none;strokeWidth=1;size=20;indent=5;" vertex="1" parent="dNxyNK7c78bLwvsdeMH5-11">
          <mxGeometry x="440" y="280" width="110" height="160" as="geometry" />
        </mxCell>
        <mxCell id="9DXy_nRxr1cRBCCIfclB-16" value="" style="verticalLabelPosition=bottom;verticalAlign=top;html=1;shape=mxgraph.basic.rect;fillColor2=none;strokeWidth=1;size=20;indent=5;" vertex="1" parent="dNxyNK7c78bLwvsdeMH5-11">
          <mxGeometry x="306" y="280" width="104" height="160" as="geometry" />
        </mxCell>
        <mxCell id="9DXy_nRxr1cRBCCIfclB-19" value="" style="verticalLabelPosition=bottom;verticalAlign=top;html=1;shape=mxgraph.basic.rect;fillColor2=none;strokeWidth=1;size=20;indent=5;" vertex="1" parent="dNxyNK7c78bLwvsdeMH5-11">
          <mxGeometry x="580" y="280" width="90" height="160" as="geometry" />
        </mxCell>
        <mxCell id="9DXy_nRxr1cRBCCIfclB-20" value="" style="verticalLabelPosition=bottom;verticalAlign=top;html=1;shape=mxgraph.basic.rect;fillColor2=none;strokeWidth=1;size=20;indent=5;" vertex="1" parent="dNxyNK7c78bLwvsdeMH5-11">
          <mxGeometry x="700" y="280" width="100" height="160" as="geometry" />
        </mxCell>
        <mxCell id="9DXy_nRxr1cRBCCIfclB-50" style="edgeStyle=orthogonalEdgeStyle;rounded=0;orthogonalLoop=1;jettySize=auto;html=1;exitX=1;exitY=0.75;exitDx=0;exitDy=0;entryX=0.5;entryY=0;entryDx=0;entryDy=0;" edge="1" parent="dNxyNK7c78bLwvsdeMH5-11" source="9DXy_nRxr1cRBCCIfclB-21" target="9DXy_nRxr1cRBCCIfclB-24">
          <mxGeometry relative="1" as="geometry" />
        </mxCell>
        <mxCell id="9DXy_nRxr1cRBCCIfclB-21" value="General Manager" style="text;html=1;align=center;verticalAlign=middle;whiteSpace=wrap;rounded=0;" vertex="1" parent="dNxyNK7c78bLwvsdeMH5-11">
          <mxGeometry x="332" y="30" width="163" height="30" as="geometry" />
        </mxCell>
        <mxCell id="9DXy_nRxr1cRBCCIfclB-22" value="Chief Financial Officer" style="text;html=1;align=center;verticalAlign=middle;whiteSpace=wrap;rounded=0;" vertex="1" parent="dNxyNK7c78bLwvsdeMH5-11">
          <mxGeometry x="80" y="160" width="140" height="30" as="geometry" />
        </mxCell>
        <mxCell id="9DXy_nRxr1cRBCCIfclB-24" value="General Counsel" style="text;html=1;align=center;verticalAlign=middle;whiteSpace=wrap;rounded=0;" vertex="1" parent="dNxyNK7c78bLwvsdeMH5-11">
          <mxGeometry x="608" y="160" width="130" height="30" as="geometry" />
        </mxCell>
        <mxCell id="9DXy_nRxr1cRBCCIfclB-25" value="Senior Director, Budgeting" style="text;html=1;align=center;verticalAlign=middle;whiteSpace=wrap;rounded=0;" vertex="1" parent="dNxyNK7c78bLwvsdeMH5-11">
          <mxGeometry x="22.5" y="280" width="87.5" height="60" as="geometry" />
        </mxCell>
        <mxCell id="9DXy_nRxr1cRBCCIfclB-27" value="Senior Director, Fianacial Operating" style="text;html=1;align=center;verticalAlign=middle;whiteSpace=wrap;rounded=0;" vertex="1" parent="dNxyNK7c78bLwvsdeMH5-11">
          <mxGeometry x="167.5" y="295" width="95" height="30" as="geometry" />
        </mxCell>
        <mxCell id="9DXy_nRxr1cRBCCIfclB-40" value="Chief of Police" style="text;html=1;align=center;verticalAlign=middle;whiteSpace=wrap;rounded=0;" vertex="1" parent="dNxyNK7c78bLwvsdeMH5-11">
          <mxGeometry x="311" y="280" width="94" height="30" as="geometry" />
        </mxCell>
        <mxCell id="9DXy_nRxr1cRBCCIfclB-42" value="Deputy Customer Service" style="text;html=1;align=center;verticalAlign=middle;whiteSpace=wrap;rounded=0;" vertex="1" parent="dNxyNK7c78bLwvsdeMH5-11">
          <mxGeometry x="440" y="280" width="110" height="30" as="geometry" />
        </mxCell>
        <mxCell id="9DXy_nRxr1cRBCCIfclB-43" value="Chief Risk Officer" style="text;html=1;align=center;verticalAlign=middle;whiteSpace=wrap;rounded=0;" vertex="1" parent="dNxyNK7c78bLwvsdeMH5-11">
          <mxGeometry x="580" y="280" width="85" height="30" as="geometry" />
        </mxCell>
        <mxCell id="9DXy_nRxr1cRBCCIfclB-44" value="Director Legislative&amp;nbsp;" style="text;html=1;align=center;verticalAlign=middle;whiteSpace=wrap;rounded=0;" vertex="1" parent="dNxyNK7c78bLwvsdeMH5-11">
          <mxGeometry x="705" y="280" width="95" height="30" as="geometry" />
        </mxCell>
        <mxCell id="9DXy_nRxr1cRBCCIfclB-46" style="edgeStyle=orthogonalEdgeStyle;rounded=0;orthogonalLoop=1;jettySize=auto;html=1;entryX=0.498;entryY=-0.021;entryDx=0;entryDy=0;entryPerimeter=0;" edge="1" parent="dNxyNK7c78bLwvsdeMH5-11" source="9DXy_nRxr1cRBCCIfclB-3" target="9DXy_nRxr1cRBCCIfclB-9">
          <mxGeometry relative="1" as="geometry" />
        </mxCell>
        <mxCell id="9DXy_nRxr1cRBCCIfclB-52" value="Chief Operating Officer" style="text;html=1;align=center;verticalAlign=middle;whiteSpace=wrap;rounded=0;" vertex="1" parent="dNxyNK7c78bLwvsdeMH5-11">
          <mxGeometry x="339" y="160" width="150" height="30" as="geometry" />
        </mxCell>
        <mxCell id="9DXy_nRxr1cRBCCIfclB-57" value="&lt;font style=&quot;font-size: 10px;&quot;&gt;Leading the whole organization&lt;/font&gt;" style="text;html=1;align=center;verticalAlign=middle;whiteSpace=wrap;rounded=0;" vertex="1" parent="dNxyNK7c78bLwvsdeMH5-11">
          <mxGeometry x="332" y="50" width="158" height="30" as="geometry" />
        </mxCell>
        <mxCell id="9DXy_nRxr1cRBCCIfclB-58" value="Department of Finance" style="text;html=1;align=center;verticalAlign=middle;whiteSpace=wrap;rounded=0;fillColor=#007FFF;" vertex="1" parent="dNxyNK7c78bLwvsdeMH5-11">
          <mxGeometry x="25" y="110" width="115" height="30" as="geometry" />
        </mxCell>
        <mxCell id="9DXy_nRxr1cRBCCIfclB-59" value="Department of Operating" style="text;html=1;align=center;verticalAlign=middle;whiteSpace=wrap;rounded=0;fillColor=#007FFF;" vertex="1" parent="dNxyNK7c78bLwvsdeMH5-11">
          <mxGeometry x="286" y="110" width="115" height="30" as="geometry" />
        </mxCell>
        <mxCell id="9DXy_nRxr1cRBCCIfclB-60" value="Department of General Counsel" style="text;html=1;align=center;verticalAlign=middle;whiteSpace=wrap;rounded=0;fillColor=#007FFF;" vertex="1" parent="dNxyNK7c78bLwvsdeMH5-11">
          <mxGeometry x="550" y="110" width="115" height="30" as="geometry" />
        </mxCell>
        <mxCell id="9DXy_nRxr1cRBCCIfclB-67" style="edgeStyle=orthogonalEdgeStyle;rounded=0;orthogonalLoop=1;jettySize=auto;html=1;entryX=0.426;entryY=-0.008;entryDx=0;entryDy=0;entryPerimeter=0;" edge="1" parent="dNxyNK7c78bLwvsdeMH5-11" source="9DXy_nRxr1cRBCCIfclB-9" target="9DXy_nRxr1cRBCCIfclB-16">
          <mxGeometry relative="1" as="geometry" />
        </mxCell>
        <mxCell id="9DXy_nRxr1cRBCCIfclB-68" style="edgeStyle=orthogonalEdgeStyle;rounded=0;orthogonalLoop=1;jettySize=auto;html=1;entryX=0.577;entryY=0.014;entryDx=0;entryDy=0;entryPerimeter=0;" edge="1" parent="dNxyNK7c78bLwvsdeMH5-11" source="9DXy_nRxr1cRBCCIfclB-9" target="9DXy_nRxr1cRBCCIfclB-18">
          <mxGeometry relative="1" as="geometry" />
        </mxCell>
        <mxCell id="9DXy_nRxr1cRBCCIfclB-71" style="edgeStyle=orthogonalEdgeStyle;rounded=0;orthogonalLoop=1;jettySize=auto;html=1;entryX=0.67;entryY=-0.001;entryDx=0;entryDy=0;entryPerimeter=0;" edge="1" parent="dNxyNK7c78bLwvsdeMH5-11" source="9DXy_nRxr1cRBCCIfclB-10" target="9DXy_nRxr1cRBCCIfclB-13">
          <mxGeometry relative="1" as="geometry" />
        </mxCell>
        <mxCell id="9DXy_nRxr1cRBCCIfclB-78" value="Overseeing all financial aspects of an organization &amp;nbsp;" style="text;html=1;align=center;verticalAlign=middle;whiteSpace=wrap;rounded=0;" vertex="1" parent="dNxyNK7c78bLwvsdeMH5-11">
          <mxGeometry x="80" y="190" width="150" height="30" as="geometry" />
        </mxCell>
        <mxCell id="9DXy_nRxr1cRBCCIfclB-80" value="Overseeing the day-to-day operations of a company" style="text;html=1;align=center;verticalAlign=middle;whiteSpace=wrap;rounded=0;" vertex="1" parent="dNxyNK7c78bLwvsdeMH5-11">
          <mxGeometry x="332" y="190" width="158" height="30" as="geometry" />
        </mxCell>
        <mxCell id="9DXy_nRxr1cRBCCIfclB-81" value="Overseeing all legal matters, providing legal guidance" style="text;html=1;align=center;verticalAlign=middle;whiteSpace=wrap;rounded=0;" vertex="1" parent="dNxyNK7c78bLwvsdeMH5-11">
          <mxGeometry x="594" y="190" width="158" height="30" as="geometry" />
        </mxCell>
        <mxCell id="9DXy_nRxr1cRBCCIfclB-113" style="edgeStyle=orthogonalEdgeStyle;rounded=0;orthogonalLoop=1;jettySize=auto;html=1;exitX=0.5;exitY=1;exitDx=0;exitDy=0;entryX=0.5;entryY=0;entryDx=0;entryDy=0;" edge="1" parent="dNxyNK7c78bLwvsdeMH5-11" source="9DXy_nRxr1cRBCCIfclB-82" target="9DXy_nRxr1cRBCCIfclB-108">
          <mxGeometry relative="1" as="geometry" />
        </mxCell>
        <mxCell id="9DXy_nRxr1cRBCCIfclB-82" value="Leading the strategic planning, and development&amp;nbsp;" style="text;html=1;align=center;verticalAlign=middle;whiteSpace=wrap;rounded=0;" vertex="1" parent="dNxyNK7c78bLwvsdeMH5-11">
          <mxGeometry x="22.5" y="340" width="87.5" height="100" as="geometry" />
        </mxCell>
        <mxCell id="9DXy_nRxr1cRBCCIfclB-116" style="edgeStyle=orthogonalEdgeStyle;rounded=0;orthogonalLoop=1;jettySize=auto;html=1;exitX=0.25;exitY=1;exitDx=0;exitDy=0;entryX=0.75;entryY=0;entryDx=0;entryDy=0;" edge="1" parent="dNxyNK7c78bLwvsdeMH5-11" source="9DXy_nRxr1cRBCCIfclB-84" target="9DXy_nRxr1cRBCCIfclB-108">
          <mxGeometry relative="1" as="geometry" />
        </mxCell>
        <mxCell id="9DXy_nRxr1cRBCCIfclB-84" value="Leading management of forecasting and financial sustainability" style="text;html=1;align=center;verticalAlign=middle;whiteSpace=wrap;rounded=0;" vertex="1" parent="dNxyNK7c78bLwvsdeMH5-11">
          <mxGeometry x="167.5" y="340" width="87.5" height="100" as="geometry" />
        </mxCell>
        <mxCell id="9DXy_nRxr1cRBCCIfclB-86" value="Leading strategic plan to maintain the safety on the system" style="text;html=1;align=center;verticalAlign=middle;whiteSpace=wrap;rounded=0;" vertex="1" parent="dNxyNK7c78bLwvsdeMH5-11">
          <mxGeometry x="313.5" y="330" width="87.5" height="100" as="geometry" />
        </mxCell>
        <mxCell id="9DXy_nRxr1cRBCCIfclB-118" style="edgeStyle=orthogonalEdgeStyle;rounded=0;orthogonalLoop=1;jettySize=auto;html=1;exitX=0.5;exitY=1;exitDx=0;exitDy=0;entryX=0.75;entryY=0;entryDx=0;entryDy=0;" edge="1" parent="dNxyNK7c78bLwvsdeMH5-11" source="9DXy_nRxr1cRBCCIfclB-87" target="9DXy_nRxr1cRBCCIfclB-101">
          <mxGeometry relative="1" as="geometry" />
        </mxCell>
        <mxCell id="9DXy_nRxr1cRBCCIfclB-87" value="Assisting in the oversight and management of customer service" style="text;html=1;align=center;verticalAlign=middle;whiteSpace=wrap;rounded=0;" vertex="1" parent="dNxyNK7c78bLwvsdeMH5-11">
          <mxGeometry x="451.25" y="330" width="87.5" height="100" as="geometry" />
        </mxCell>
        <mxCell id="9DXy_nRxr1cRBCCIfclB-119" style="edgeStyle=orthogonalEdgeStyle;rounded=0;orthogonalLoop=1;jettySize=auto;html=1;exitX=0.75;exitY=1;exitDx=0;exitDy=0;entryX=0.25;entryY=0;entryDx=0;entryDy=0;" edge="1" parent="dNxyNK7c78bLwvsdeMH5-11" source="9DXy_nRxr1cRBCCIfclB-88" target="9DXy_nRxr1cRBCCIfclB-112">
          <mxGeometry relative="1" as="geometry" />
        </mxCell>
        <mxCell id="9DXy_nRxr1cRBCCIfclB-88" value="Managing an organization&#39;s risk management processes" style="text;html=1;align=center;verticalAlign=middle;whiteSpace=wrap;rounded=0;" vertex="1" parent="dNxyNK7c78bLwvsdeMH5-11">
          <mxGeometry x="578.75" y="330" width="87.5" height="100" as="geometry" />
        </mxCell>
        <mxCell id="9DXy_nRxr1cRBCCIfclB-89" value="Developing and implementing strategies to engage with legislative bodies" style="text;html=1;align=center;verticalAlign=middle;whiteSpace=wrap;rounded=0;" vertex="1" parent="dNxyNK7c78bLwvsdeMH5-11">
          <mxGeometry x="705" y="330" width="87.5" height="100" as="geometry" />
        </mxCell>
        <mxCell id="9DXy_nRxr1cRBCCIfclB-92" value="Department of Budgeting" style="text;html=1;align=center;verticalAlign=middle;whiteSpace=wrap;rounded=0;fillColor=#007FFF;" vertex="1" parent="dNxyNK7c78bLwvsdeMH5-11">
          <mxGeometry x="7.5" y="450" width="115" height="30" as="geometry" />
        </mxCell>
        <mxCell id="9DXy_nRxr1cRBCCIfclB-93" value="Department of Financial Operating" style="text;html=1;align=center;verticalAlign=middle;whiteSpace=wrap;rounded=0;fillColor=#007FFF;" vertex="1" parent="dNxyNK7c78bLwvsdeMH5-11">
          <mxGeometry x="155" y="450" width="115" height="30" as="geometry" />
        </mxCell>
        <mxCell id="9DXy_nRxr1cRBCCIfclB-94" value="Department of Police" style="text;html=1;align=center;verticalAlign=middle;whiteSpace=wrap;rounded=0;fillColor=#007FFF;" vertex="1" parent="dNxyNK7c78bLwvsdeMH5-11">
          <mxGeometry x="298" y="450" width="115" height="30" as="geometry" />
        </mxCell>
        <mxCell id="9DXy_nRxr1cRBCCIfclB-95" value="Department of Customer Service" style="text;html=1;align=center;verticalAlign=middle;whiteSpace=wrap;rounded=0;fillColor=#007FFF;" vertex="1" parent="dNxyNK7c78bLwvsdeMH5-11">
          <mxGeometry x="435" y="450" width="115" height="30" as="geometry" />
        </mxCell>
        <mxCell id="9DXy_nRxr1cRBCCIfclB-96" value="Department of Risk" style="text;html=1;align=center;verticalAlign=middle;whiteSpace=wrap;rounded=0;fillColor=#007FFF;" vertex="1" parent="dNxyNK7c78bLwvsdeMH5-11">
          <mxGeometry x="567.5" y="450" width="115" height="30" as="geometry" />
        </mxCell>
        <mxCell id="9DXy_nRxr1cRBCCIfclB-97" value="Department of Legislative" style="text;html=1;align=center;verticalAlign=middle;whiteSpace=wrap;rounded=0;fillColor=#007FFF;" vertex="1" parent="dNxyNK7c78bLwvsdeMH5-11">
          <mxGeometry x="695" y="450" width="115" height="30" as="geometry" />
        </mxCell>
        <mxCell id="9DXy_nRxr1cRBCCIfclB-100" value="" style="rounded=0;whiteSpace=wrap;html=1;" vertex="1" parent="dNxyNK7c78bLwvsdeMH5-11">
          <mxGeometry x="376" y="520" width="100" height="150" as="geometry" />
        </mxCell>
        <mxCell id="9DXy_nRxr1cRBCCIfclB-101" value="&lt;span style=&quot;caret-color: rgb(0, 0, 0); color: rgb(0, 0, 0); font-family: Helvetica; font-size: 12px; font-style: normal; font-variant-caps: normal; font-weight: 400; letter-spacing: normal; orphans: auto; text-align: center; text-indent: 0px; text-transform: none; white-space: normal; widows: auto; word-spacing: 0px; -webkit-text-stroke-width: 0px; background-color: rgb(251, 251, 251); text-decoration: none; display: inline !important; float: none;&quot;&gt;Deputy Chief - Safety Culture&lt;/span&gt;" style="text;html=1;align=center;verticalAlign=middle;whiteSpace=wrap;rounded=0;" vertex="1" parent="dNxyNK7c78bLwvsdeMH5-11">
          <mxGeometry x="383.5" y="530" width="85" height="30" as="geometry" />
        </mxCell>
        <mxCell id="9DXy_nRxr1cRBCCIfclB-126" style="edgeStyle=orthogonalEdgeStyle;rounded=0;orthogonalLoop=1;jettySize=auto;html=1;exitX=0.5;exitY=1;exitDx=0;exitDy=0;entryX=0.5;entryY=0;entryDx=0;entryDy=0;" edge="1" parent="dNxyNK7c78bLwvsdeMH5-11" source="9DXy_nRxr1cRBCCIfclB-103" target="9DXy_nRxr1cRBCCIfclB-124">
          <mxGeometry relative="1" as="geometry" />
        </mxCell>
        <mxCell id="9DXy_nRxr1cRBCCIfclB-103" value="" style="rounded=0;whiteSpace=wrap;html=1;" vertex="1" parent="dNxyNK7c78bLwvsdeMH5-11">
          <mxGeometry x="648" y="520" width="100" height="150" as="geometry" />
        </mxCell>
        <mxCell id="9DXy_nRxr1cRBCCIfclB-104" value="" style="rounded=0;whiteSpace=wrap;html=1;" vertex="1" parent="dNxyNK7c78bLwvsdeMH5-11">
          <mxGeometry x="87.5" y="710" width="80" height="150" as="geometry" />
        </mxCell>
        <mxCell id="9DXy_nRxr1cRBCCIfclB-105" value="" style="rounded=0;whiteSpace=wrap;html=1;" vertex="1" parent="dNxyNK7c78bLwvsdeMH5-11">
          <mxGeometry x="409" y="710" width="80" height="150" as="geometry" />
        </mxCell>
        <mxCell id="9DXy_nRxr1cRBCCIfclB-106" value="" style="rounded=0;whiteSpace=wrap;html=1;" vertex="1" parent="dNxyNK7c78bLwvsdeMH5-11">
          <mxGeometry x="303.5" y="710" width="80" height="150" as="geometry" />
        </mxCell>
        <mxCell id="9DXy_nRxr1cRBCCIfclB-108" value="" style="rounded=0;whiteSpace=wrap;html=1;" vertex="1" parent="dNxyNK7c78bLwvsdeMH5-11">
          <mxGeometry x="86" y="520" width="100" height="150" as="geometry" />
        </mxCell>
        <mxCell id="9DXy_nRxr1cRBCCIfclB-109" value="Cashier" style="text;html=1;align=center;verticalAlign=middle;whiteSpace=wrap;rounded=0;" vertex="1" parent="dNxyNK7c78bLwvsdeMH5-11">
          <mxGeometry x="311" y="720" width="60" height="30" as="geometry" />
        </mxCell>
        <mxCell id="9DXy_nRxr1cRBCCIfclB-110" value="Transit Police" style="text;html=1;align=center;verticalAlign=middle;whiteSpace=wrap;rounded=0;" vertex="1" parent="dNxyNK7c78bLwvsdeMH5-11">
          <mxGeometry x="413" y="720" width="77" height="30" as="geometry" />
        </mxCell>
        <mxCell id="9DXy_nRxr1cRBCCIfclB-111" value="Deputy Chief - Performance" style="text;html=1;align=center;verticalAlign=middle;whiteSpace=wrap;rounded=0;" vertex="1" parent="dNxyNK7c78bLwvsdeMH5-11">
          <mxGeometry x="81" y="530" width="110" height="30" as="geometry" />
        </mxCell>
        <mxCell id="9DXy_nRxr1cRBCCIfclB-112" value="Deputy Chief - Public Health" style="text;html=1;align=center;verticalAlign=middle;whiteSpace=wrap;rounded=0;" vertex="1" parent="dNxyNK7c78bLwvsdeMH5-11">
          <mxGeometry x="652" y="520" width="92" height="30" as="geometry" />
        </mxCell>
        <mxCell id="9DXy_nRxr1cRBCCIfclB-117" style="edgeStyle=orthogonalEdgeStyle;rounded=0;orthogonalLoop=1;jettySize=auto;html=1;exitX=0.5;exitY=1;exitDx=0;exitDy=0;entryX=0.348;entryY=0.014;entryDx=0;entryDy=0;entryPerimeter=0;" edge="1" parent="dNxyNK7c78bLwvsdeMH5-11" source="9DXy_nRxr1cRBCCIfclB-86" target="9DXy_nRxr1cRBCCIfclB-100">
          <mxGeometry relative="1" as="geometry" />
        </mxCell>
        <mxCell id="9DXy_nRxr1cRBCCIfclB-120" style="edgeStyle=orthogonalEdgeStyle;rounded=0;orthogonalLoop=1;jettySize=auto;html=1;exitX=0.5;exitY=1;exitDx=0;exitDy=0;entryX=0.652;entryY=0.029;entryDx=0;entryDy=0;entryPerimeter=0;" edge="1" parent="dNxyNK7c78bLwvsdeMH5-11" source="9DXy_nRxr1cRBCCIfclB-89" target="9DXy_nRxr1cRBCCIfclB-112">
          <mxGeometry relative="1" as="geometry" />
        </mxCell>
        <mxCell id="9DXy_nRxr1cRBCCIfclB-121" style="edgeStyle=orthogonalEdgeStyle;rounded=0;orthogonalLoop=1;jettySize=auto;html=1;exitX=0.5;exitY=1;exitDx=0;exitDy=0;entryX=0.628;entryY=-0.041;entryDx=0;entryDy=0;entryPerimeter=0;" edge="1" parent="dNxyNK7c78bLwvsdeMH5-11" source="9DXy_nRxr1cRBCCIfclB-100" target="9DXy_nRxr1cRBCCIfclB-106">
          <mxGeometry relative="1" as="geometry" />
        </mxCell>
        <mxCell id="9DXy_nRxr1cRBCCIfclB-122" style="edgeStyle=orthogonalEdgeStyle;rounded=0;orthogonalLoop=1;jettySize=auto;html=1;exitX=0.75;exitY=1;exitDx=0;exitDy=0;entryX=0.603;entryY=-0.01;entryDx=0;entryDy=0;entryPerimeter=0;" edge="1" parent="dNxyNK7c78bLwvsdeMH5-11" source="9DXy_nRxr1cRBCCIfclB-100" target="9DXy_nRxr1cRBCCIfclB-105">
          <mxGeometry relative="1" as="geometry" />
        </mxCell>
        <mxCell id="9DXy_nRxr1cRBCCIfclB-123" value="Data Analyst" style="text;html=1;align=center;verticalAlign=middle;whiteSpace=wrap;rounded=0;" vertex="1" parent="dNxyNK7c78bLwvsdeMH5-11">
          <mxGeometry x="97.5" y="720" width="60" height="30" as="geometry" />
        </mxCell>
        <mxCell id="9DXy_nRxr1cRBCCIfclB-124" value="" style="rounded=0;whiteSpace=wrap;html=1;" vertex="1" parent="dNxyNK7c78bLwvsdeMH5-11">
          <mxGeometry x="658" y="710" width="80" height="150" as="geometry" />
        </mxCell>
        <mxCell id="9DXy_nRxr1cRBCCIfclB-125" value="Janitor" style="text;html=1;align=center;verticalAlign=middle;whiteSpace=wrap;rounded=0;" vertex="1" parent="dNxyNK7c78bLwvsdeMH5-11">
          <mxGeometry x="666.25" y="720" width="60" height="30" as="geometry" />
        </mxCell>
        <mxCell id="9DXy_nRxr1cRBCCIfclB-127" style="edgeStyle=orthogonalEdgeStyle;rounded=0;orthogonalLoop=1;jettySize=auto;html=1;exitX=0.5;exitY=1;exitDx=0;exitDy=0;entryX=0.622;entryY=-0.006;entryDx=0;entryDy=0;entryPerimeter=0;" edge="1" parent="dNxyNK7c78bLwvsdeMH5-11" source="9DXy_nRxr1cRBCCIfclB-108" target="9DXy_nRxr1cRBCCIfclB-104">
          <mxGeometry relative="1" as="geometry" />
        </mxCell>
        <mxCell id="9DXy_nRxr1cRBCCIfclB-128" value="Optimizing organizational performance &amp;nbsp;initiatives, metrics,&amp;nbsp;" style="text;html=1;align=center;verticalAlign=middle;whiteSpace=wrap;rounded=0;" vertex="1" parent="dNxyNK7c78bLwvsdeMH5-11">
          <mxGeometry x="94.75" y="595" width="82.5" height="60" as="geometry" />
        </mxCell>
        <mxCell id="9DXy_nRxr1cRBCCIfclB-130" value="Planning and implementing strategies to enhance safety." style="text;html=1;align=center;verticalAlign=middle;whiteSpace=wrap;rounded=0;" vertex="1" parent="dNxyNK7c78bLwvsdeMH5-11">
          <mxGeometry x="383.5" y="595" width="82.5" height="60" as="geometry" />
        </mxCell>
        <mxCell id="9DXy_nRxr1cRBCCIfclB-131" value="Implementing initiatives to enhance public health" style="text;html=1;align=center;verticalAlign=middle;whiteSpace=wrap;rounded=0;" vertex="1" parent="dNxyNK7c78bLwvsdeMH5-11">
          <mxGeometry x="655" y="590" width="82.5" height="60" as="geometry" />
        </mxCell>
        <mxCell id="9DXy_nRxr1cRBCCIfclB-132" value="Keep the system clean and safe" style="text;html=1;align=center;verticalAlign=middle;whiteSpace=wrap;rounded=0;" vertex="1" parent="dNxyNK7c78bLwvsdeMH5-11">
          <mxGeometry x="656.75" y="755" width="82.5" height="60" as="geometry" />
        </mxCell>
        <mxCell id="9DXy_nRxr1cRBCCIfclB-133" value="Maintenance the system safety for everyone" style="text;html=1;align=center;verticalAlign=middle;whiteSpace=wrap;rounded=0;" vertex="1" parent="dNxyNK7c78bLwvsdeMH5-11">
          <mxGeometry x="407.75" y="755" width="82.5" height="60" as="geometry" />
        </mxCell>
        <mxCell id="9DXy_nRxr1cRBCCIfclB-134" value="Directly interact and guide the customers on site" style="text;html=1;align=center;verticalAlign=middle;whiteSpace=wrap;rounded=0;" vertex="1" parent="dNxyNK7c78bLwvsdeMH5-11">
          <mxGeometry x="299.75" y="755" width="82.5" height="60" as="geometry" />
        </mxCell>
        <mxCell id="9DXy_nRxr1cRBCCIfclB-135" value="Cleaning and process data for reports" style="text;html=1;align=center;verticalAlign=middle;whiteSpace=wrap;rounded=0;" vertex="1" parent="dNxyNK7c78bLwvsdeMH5-11">
          <mxGeometry x="87.5" y="765" width="82.5" height="60" as="geometry" />
        </mxCell>
      </root>
    </mxGraphModel>
  </diagram>
</mxfile>
